<?xml version="1.0" encoding="utf-8"?>
<!-- Generator: Adobe Illustrator 15.0.0, SVG Export Plug-In . SVG Version: 6.00 Build 0)  -->
<!DOCTYPE svg PUBLIC "-//W3C//DTD SVG 1.0//EN" "http://www.w3.org/TR/2001/REC-SVG-20010904/DTD/svg10.dtd">
<svg version="1.0" id="Warstwa_1" xmlns="http://www.w3.org/2000/svg" xmlns:xlink="http://www.w3.org/1999/xlink" x="0px" y="0px"
	 width="100px" height="50px" viewBox="0 0 100 50" enable-background="new 0 0 100 50" xml:space="preserve">
<g>
	<g>
		<g>
			<path fill="#FFFFFF" d="M20.569,40.295c0,3.598-1.512,5.393-4.532,5.393H5v-7.305h6.505c0.46,0,0.886-0.141,1.278-0.428
				c0.392-0.285,0.588-0.656,0.588-1.119V4.313h7.197V40.295z"/>
			<path fill="#FFFFFF" d="M40.669,4.313l-4.321,41.375h-9.755L22.008,4.313h7.356l1.815,25.751h0.265l1.814-25.751H40.669z"/>
			<path fill="#FFFFFF" d="M60.395,45.688h-7.197l-3.572-19.886v19.886h-7.197V4.313h7.197l3.572,14.29V4.313h7.197V45.688z"/>
			<path fill="#FF1BDD" d="M74.527,45.688H67.33V11.725h-4.799V4.313h11.996V45.688z"/>
			<path fill="#FF1BDD" d="M95,40.301c0,1.316-0.338,2.508-1.013,3.572c-0.783,1.209-1.813,1.814-3.095,1.814h-9.328
				c-1.493,0-2.649-0.529-3.468-1.6c-0.71-0.955-1.066-2.217-1.066-3.787V25.853c0-0.852,0.392-1.66,1.175-2.425
				c0.783-0.764,1.615-1.2,2.506-1.306c-0.959,0-1.814-0.374-2.56-1.12c-0.746-0.747-1.121-1.6-1.121-2.56V9.751
				c0-1.563,0.356-2.825,1.066-3.784c0.818-1.103,1.975-1.654,3.468-1.654h9.328c1.282,0,2.312,0.623,3.095,1.866
				C94.662,7.245,95,8.437,95,9.751v8.691c0,0.925-0.345,1.76-1.041,2.506c-0.691,0.747-1.483,1.121-2.37,1.121
				c0.887,0.106,1.679,0.542,2.37,1.306C94.655,24.139,95,24.966,95,25.853v7.254V40.301z M87.749,16.545v-3.139
				c0-1.263-0.586-1.895-1.759-1.895c-1.174,0-1.76,0.632-1.76,1.895v3.085c0,1.443,0.602,2.167,1.812,2.167
				C87.18,18.657,87.749,17.953,87.749,16.545z M87.749,36.793v-8.922c0-1.346-0.604-2.018-1.813-2.018
				c-1.137,0-1.706,0.708-1.706,2.125v8.814c0,1.131,0.586,1.697,1.76,1.697C87.163,38.49,87.749,37.924,87.749,36.793z"/>
		</g>
	</g>
</g>
</svg>
