<?xml version="1.0" encoding="utf-8"?>
<!-- Generator: Adobe Illustrator 15.0.0, SVG Export Plug-In . SVG Version: 6.00 Build 0)  -->
<!DOCTYPE svg PUBLIC "-//W3C//DTD SVG 1.0//EN" "http://www.w3.org/TR/2001/REC-SVG-20010904/DTD/svg10.dtd">
<svg version="1.0" id="Warstwa_1" xmlns="http://www.w3.org/2000/svg" xmlns:xlink="http://www.w3.org/1999/xlink" x="0px" y="0px"
	 width="40px" height="20px" viewBox="0 0 40 20" enable-background="new 0 0 40 20" xml:space="preserve">
<path fill="#FF0090" d="M12.604,6.771l0.004,4.399c-0.53-0.467-1.342-0.716-2.33-0.748c-1.104,0.074-2.94,0.554-3.679,2.053v5.135
	H2.046V6.321L6.599,6.32v1.77c1.162-1.168,2.823-1.447,4.494-1.447C11.625,6.643,12.128,6.686,12.604,6.771z M36.328,8.17
	c-1.086-1.223-2.655-1.833-4.717-1.833c-2.385,0-4.173,0.611-5.365,1.833c-1.084-1.223-2.657-1.833-4.716-1.833
	c-1.583,0-2.885,0.468-3.905,1.403V6.32l-4.553,0.479v10.811h4.553v-5.533c0.726-1.244,1.588-1.897,2.587-1.96
	c1.094,0.032,1.886,0.339,2.374,0.924c0.488,0.585,0.732,1.409,0.732,2.472v4.098h4.553v-4.736c0-0.34,0.028-0.674,0.082-1.004
	c0.66-1.105,1.442-1.69,2.341-1.753c1.095,0.032,1.886,0.339,2.374,0.924c0.49,0.585,0.73,1.409,0.73,2.472v4.098h4.556v-5.215
	C37.954,10.801,37.414,9.392,36.328,8.17z M3.769,5.891H2.054V5.33h0.603V2.951H2.054V2.39h1.715v1.34
	c0.278-0.223,0.609-0.336,0.989-0.336c0.446,0,0.809,0.118,1.087,0.355c0.28,0.236,0.421,0.54,0.421,0.909
	c0,0.394-0.141,0.704-0.421,0.929C5.566,5.814,5.212,5.927,4.786,5.927c-0.384,0-0.724-0.105-1.018-0.316V5.891z M3.757,4.688
	c0,0.198,0.063,0.354,0.194,0.465C4.08,5.266,4.243,5.322,4.444,5.322c0.194,0,0.355-0.054,0.486-0.163
	C5.059,5.05,5.124,4.881,5.124,4.654c0-0.209-0.061-0.366-0.182-0.472C4.819,4.076,4.658,4.024,4.454,4.024
	c-0.192,0-0.355,0.052-0.492,0.155C3.826,4.284,3.757,4.454,3.757,4.688z M7.924,5.889L7.696,6.315H7.037v0.551h1.196l1.642-2.925
	h0.488V3.39H8.563v0.552h0.446L8.4,5.021L7.83,3.942h0.403V3.39H6.182v0.552h0.496L7.924,5.889z"/>
</svg>
