<?xml version="1.0" encoding="utf-8"?>
<!-- Generator: Adobe Illustrator 15.0.0, SVG Export Plug-In . SVG Version: 6.00 Build 0)  -->
<!DOCTYPE svg PUBLIC "-//W3C//DTD SVG 1.0//EN" "http://www.w3.org/TR/2001/REC-SVG-20010904/DTD/svg10.dtd">
<svg version="1.0" id="Warstwa_1" xmlns="http://www.w3.org/2000/svg" xmlns:xlink="http://www.w3.org/1999/xlink" x="0px" y="0px"
	 width="200px" height="100px" viewBox="0 0 200 100" enable-background="new 0 0 200 100" xml:space="preserve">
<g>
	<linearGradient id="SVGID_1_" gradientUnits="userSpaceOnUse" x1="98.8188" y1="86.7803" x2="98.8188" y2="13.541">
		<stop  offset="0" style="stop-color:#47B594"/>
		<stop  offset="0.0546" style="stop-color:#409B80"/>
		<stop  offset="0.1718" style="stop-color:#336C5B"/>
		<stop  offset="0.2848" style="stop-color:#27483F"/>
		<stop  offset="0.3906" style="stop-color:#1B2F2A"/>
		<stop  offset="0.4876" style="stop-color:#121E1B"/>
		<stop  offset="0.5725" style="stop-color:#0B1410"/>
		<stop  offset="0.6364" style="stop-color:#08100B"/>
	</linearGradient>
	<path fill="url(#SVGID_1_)" d="M115.227,41.406c0.009,0,0.013,0.001,0.016-0.001C115.268,41.568,115.255,41.541,115.227,41.406z
		 M99.249,62.221c35.544,0,66.024,2.343,78.954,5.678c-0.786-5.028-35.829-9.077-78.954-9.077c-43.122,0-78.165,4.049-78.95,9.077
		C33.225,64.563,63.706,62.221,99.249,62.221z M99.249,62.221c35.544,0,66.024,2.343,78.954,5.678
		c-0.786-5.028-35.829-9.077-78.954-9.077c-43.122,0-78.165,4.049-78.95,9.077C33.225,64.563,63.706,62.221,99.249,62.221z
		 M186.813,41.629c0,3.823-2.382,7.468-6.69,10.787c1.203-1.417,2.059-2.88,2.541-4.382c-1.173,0.827-2.342,1.652-3.514,2.476
		c-1.115,4.15-5.688,8.013-12.784,11.329c-13.93-2.626-38.774-4.376-67.117-4.376c-28.336,0-53.187,1.75-67.117,4.376
		c-8.212-3.838-13.053-8.408-13.053-13.314c0-0.348,0.032-0.692,0.079-1.041c-1.254-0.881-2.506-1.762-3.754-2.642
		c-0.006,0.13-0.016,0.256-0.016,0.386c0,2.489,1.042,4.898,2.991,7.188c-4.312-3.319-6.694-6.964-6.694-10.787
		c0-15.513,39.206-28.089,87.564-28.089C147.611,13.541,186.813,26.117,186.813,41.629z M185.274,67.436
		c-5.218-0.315-10.439-0.604-15.66-0.86c0.187,1.393,0.377,2.787,0.563,4.181c5.266,0.155,10.524,0.326,15.79,0.512
		C185.736,69.992,185.506,68.714,185.274,67.436z M175.998,76.169c-5.123-0.016-10.24-0.035-15.362-0.051
		c-0.165-1.459-0.323-2.913-0.485-4.372c5.082,0.102,10.16,0.217,15.239,0.344C175.592,73.45,175.792,74.81,175.998,76.169z
		 M135.911,69.994c-21.512-0.328-43.03-0.372-64.539-0.137c0.07-1.6,0.143-3.201,0.212-4.803
		c21.341-0.397,42.688-0.323,64.028,0.233C135.712,66.856,135.81,68.426,135.911,69.994z M47.266,70.241
		c-12.581,0.263-25.155,0.621-37.72,1.077c0.235-1.268,0.469-2.531,0.704-3.799c12.467-0.768,24.939-1.375,37.419-1.816
		C47.532,67.219,47.399,68.73,47.266,70.241z M71.591,76.047c-9.581,0.011-19.161,0.028-28.738,0.056
		c0.139-1.494,0.285-2.988,0.434-4.48c9.501-0.172,19.005-0.296,28.52-0.38C71.73,72.847,71.664,74.445,71.591,76.047z
		 M48.388,65.717c1.667,0.242,3.336,0.491,5.006,0.748c2.142-0.267,4.277-0.537,6.412-0.805c-1.758,1.505-3.532,2.992-5.313,4.464
		c-2.173,0.038-4.334,0.081-6.504,0.125C48.122,68.739,48.254,67.227,48.388,65.717z M60.094,66.113
		c-0.057,0.904-0.118,1.808-0.174,2.71c-0.555,0.653-1.112,1.304-1.673,1.956c-1.331,0.02-2.665,0.038-3.995,0.063
		C56.216,69.284,58.165,67.708,60.094,66.113z M69.038,64.861c-0.098,1.68-0.196,3.361-0.294,5.041
		c-0.498,0.277-0.992,0.553-1.486,0.83c-1.35-0.008-2.699-0.018-4.046-0.021C65.169,68.779,67.111,66.829,69.038,64.861z
		 M77.573,78.832c-1.35-0.002-2.699-0.005-4.049-0.012c-0.491-0.789-0.979-1.576-1.464-2.363c0.066-1.523,0.13-3.051,0.193-4.579
		C74.005,74.176,75.779,76.497,77.573,78.832z M70.821,69.946c-0.526,0.005-1.045,0.013-1.571,0.02
		c0.083-1.685,0.162-3.371,0.244-5.054c0.516-0.011,1.036-0.023,1.555-0.033C70.974,66.567,70.897,68.258,70.821,69.946z
		 M8.998,77.876c1.667,0.007,3.33,0.018,4.996,0.03c-0.051,0.306-0.104,0.611-0.152,0.918c-1.796,0.834-3.605,1.643-5.415,2.423
		C8.618,80.124,8.808,78.998,8.998,77.876z M17.514,77.827c0.839-0.011,1.682-0.023,2.525-0.036
		c1.552,0.057,3.102,0.115,4.651,0.174c-0.016,0.326-0.029,0.651-0.041,0.973c-1.911,0.957-3.833,1.882-5.766,2.783
		c-0.909-0.021-1.819-0.046-2.728-0.069C16.611,80.381,17.061,79.104,17.514,77.827z M33.453,78.173
		c5.126,0.006,10.255,0.013,15.388,0.014c0.212-0.522,0.431-1.047,0.64-1.571c0.327,0.038,0.653,0.073,0.976,0.111
		c0.58,0.114,1.16,0.227,1.742,0.341c-0.107,2.168-0.212,4.342-0.32,6.517c-0.89,0.098-1.78,0.193-2.671,0.288
		c-0.545-0.089-1.09-0.173-1.631-0.258c0.006-0.096,0.013-0.186,0.022-0.279c-4.99-0.378-9.973-0.759-14.944-1.131
		C32.921,80.862,33.187,79.516,33.453,78.173z M62.537,79.044c0.044-0.713,0.085-1.432,0.127-2.146c0.855,0,1.71,0,2.566,0
		c0.06,0.644,0.117,1.285,0.178,1.93c6.836,0.217,13.683,0.437,20.536,0.65c0.051-2.519,0.104-5.038,0.149-7.558
		c0.406,0,0.808,0,1.204-0.001c-0.038,2.317-0.083,4.64-0.124,6.96c0.688,0.041,1.372,0.083,2.059,0.122
		c0.368,0.221,0.741,0.442,1.115,0.664c-0.003,0.38-0.013,0.76-0.019,1.141c-0.421,1.403-0.852,2.801-1.28,4.204
		c-0.409,0.018-0.817,0.034-1.229,0.054c-0.241,0.097-0.472,0.199-0.719,0.296c-0.361,0.018-0.722,0.037-1.083,0.054
		c-0.187-0.143-0.374-0.283-0.561-0.423c-6.726-0.158-13.446-0.345-20.162-0.559c-0.447,0.092-0.894,0.184-1.34,0.275
		c-0.865-0.073-1.727-0.143-2.588-0.217c-0.022-0.154-0.047-0.311-0.069-0.465c-3.045-0.159-6.086-0.326-9.131-0.494
		c0.127-1.625,0.257-3.252,0.377-4.875C55.874,78.786,59.201,78.912,62.537,79.044z M61.361,86.78 M157.464,66.018
		c3.745,0.157,7.489,0.325,11.237,0.509c0.185,1.402,0.371,2.801,0.558,4.204c-3.776-0.109-7.55-0.211-11.322-0.306
		C157.774,68.961,157.619,67.491,157.464,66.018z M133.418,71.328c9.504,0.107,19.012,0.258,28.51,0.456
		c0.168,1.446,0.336,2.893,0.504,4.34c-9.577-0.028-19.158-0.05-28.738-0.066C133.602,74.481,133.51,72.904,133.418,71.328z
		 M157.207,70.435c-2.163-0.053-4.334-0.102-6.501-0.149c-1.803-1.441-3.593-2.905-5.37-4.385c2.133,0.272,4.274,0.549,6.416,0.824
		c1.666-0.241,3.333-0.472,4.993-0.698C156.9,67.494,157.052,68.966,157.207,70.435z M150.957,70.985
		c-1.334-0.025-2.665-0.051-3.995-0.074c-0.567-0.637-1.135-1.275-1.698-1.918c-0.07-0.884-0.143-1.77-0.216-2.652
		C147.006,67.909,148.974,69.459,150.957,70.985z M141.997,70.827c-1.347,0.003-2.692,0.005-4.039,0.007
		c-0.498-0.271-1.001-0.545-1.499-0.819c-0.123-1.652-0.244-3.303-0.364-4.955C138.043,67.005,140.014,68.93,141.997,70.827z
		 M132.975,71.952c0.085,1.503,0.171,3.008,0.256,4.513c-0.475,0.773-0.95,1.55-1.432,2.329c-1.35,0.006-2.699,0.011-4.049,0.014
		C129.512,76.5,131.254,74.213,132.975,71.952z M134.083,65.063c0.52,0.015,1.033,0.029,1.556,0.045
		c0.102,1.653,0.209,3.311,0.311,4.969c-0.52-0.008-1.042-0.014-1.568-0.021C134.279,68.388,134.185,66.727,134.083,65.063z
		 M189.209,81.415c-0.909,0.027-1.818,0.053-2.725,0.079c-1.948-0.851-3.884-1.734-5.811-2.646c-0.019-0.31-0.041-0.619-0.057-0.93
		c1.546-0.059,3.095-0.115,4.645-0.171c0.843,0.011,1.686,0.022,2.531,0.032C188.265,78.998,188.737,80.21,189.209,81.415z
		 M172.719,82.008c-4.971,0.377-9.948,0.762-14.932,1.148c0.01,0.09,0.016,0.181,0.028,0.274c-0.545,0.084-1.086,0.169-1.631,0.255
		c-0.891-0.088-1.781-0.181-2.675-0.271c-0.136-2.119-0.272-4.237-0.408-6.351c0.576-0.113,1.159-0.223,1.739-0.332
		c0.32-0.038,0.64-0.073,0.963-0.111c0.226,0.51,0.45,1.021,0.669,1.528c5.126-0.004,10.255-0.014,15.385-0.024
		C172.143,79.419,172.428,80.714,172.719,82.008z M152.772,78.61c0.155,1.584,0.301,3.171,0.449,4.755
		c-3.041,0.176-6.079,0.351-9.121,0.518c-0.021,0.152-0.044,0.305-0.066,0.458c-0.858,0.073-1.72,0.147-2.582,0.219
		c-0.45-0.087-0.896-0.171-1.34-0.263c-6.717,0.234-13.434,0.446-20.159,0.629c-0.187,0.14-0.371,0.282-0.555,0.421
		c-0.364-0.014-0.729-0.033-1.09-0.051c-0.24-0.095-0.479-0.193-0.719-0.291c-0.412-0.015-0.82-0.032-1.232-0.049
		c-0.447-1.388-0.894-2.779-1.337-4.175c-0.013-0.377-0.02-0.755-0.032-1.134c0.371-0.222,0.738-0.442,1.106-0.659
		c0.688-0.041,1.371-0.084,2.059-0.125c-0.072-2.302-0.148-4.606-0.219-6.911c0.402,0.003,0.802,0.008,1.204,0.008
		c0.079,2.498,0.165,4.996,0.251,7.496c6.849-0.221,13.692-0.442,20.522-0.667c0.055-0.629,0.108-1.261,0.155-1.892
		c0.855,0,1.711,0,2.563,0c0.051,0.702,0.104,1.405,0.158,2.105C146.119,78.87,149.445,78.743,152.772,78.61z M143.937,86.78
		 M187.362,79.704c-23.591,1.094-53.206,1.69-88.113,1.69c-35.654,0-67.817-0.692-90.552-1.804v1.719
		c21.078,1.348,53.801,2.214,90.552,2.214c35.36,0,66.991-0.803,88.113-2.063V79.704z"/>
	<g>
		<path fill="#FFF5D4" d="M152.198,30.061c1.727,0.464,3.391,0.952,4.983,1.464c1.188-1.572,2.377-3.14,3.564-4.711
			c-1.663-0.58-3.405-1.14-5.221-1.671C154.416,26.784,153.308,28.421,152.198,30.061z"/>
		<path fill="#FFF5D4" d="M157.965,31.785c1.682,0.556,3.282,1.131,4.797,1.734c1.273-1.481,2.537-2.965,3.808-4.448
			c-1.574-0.683-3.244-1.338-5.003-1.967C160.363,28.659,159.162,30.221,157.965,31.785z"/>
		<path fill="#FFF5D4" d="M171.863,38.092c0.985,0.643,1.889,1.302,2.689,1.977c1.354-1.206,2.706-2.413,4.056-3.618
			c-0.799-0.755-1.698-1.495-2.696-2.219C174.563,35.52,173.213,36.806,171.863,38.092z"/>
		<path fill="#FFF5D4" d="M163.512,33.818c1.347,0.555,2.62,1.126,3.814,1.716c1.318-1.394,2.64-2.788,3.957-4.184
			c-1.232-0.662-2.544-1.31-3.938-1.934C166.068,30.886,164.792,32.35,163.512,33.818z"/>
		<path fill="#FFF5D4" d="M144.858,28.298c2.268,0.485,4.447,1,6.532,1.549c1.097-1.649,2.189-3.298,3.285-4.947
			c-2.201-0.627-4.498-1.218-6.894-1.768C146.81,24.854,145.834,26.578,144.858,28.298z"/>
		<path fill="#FFF5D4" d="M128.213,25.587c2.572,0.304,5.088,0.651,7.524,1.033c0.788-1.801,1.577-3.603,2.366-5.405
			c-2.595-0.438-5.269-0.835-8.021-1.187C129.458,21.881,128.833,23.736,128.213,25.587z"/>
		<path fill="#FFF5D4" d="M136.57,26.757c2.575,0.417,5.068,0.873,7.464,1.369c0.96-1.73,1.92-3.46,2.874-5.187
			c-2.541-0.57-5.184-1.093-7.921-1.57C138.183,23.163,137.378,24.959,136.57,26.757z"/>
		<path fill="#FFF5D4" d="M15.474,44.025c1.271,0.911,2.544,1.813,3.818,2.725c0.196-0.841,0.526-1.668,0.992-2.482
			c-1.334-1.004-2.662-2.009-3.995-3.01C15.873,42.164,15.604,43.087,15.474,44.025z"/>
		<path fill="#FFF5D4" d="M100.881,23.936c-0.013-1.928-0.019-3.859-0.028-5.79c-0.536-0.001-1.068-0.008-1.604-0.008
			c-2.661,0-5.288,0.041-7.885,0.121c0.215,1.924,0.44,3.849,0.656,5.772c2.386-0.065,4.793-0.096,7.229-0.096
			C99.794,23.934,100.336,23.934,100.881,23.936z"/>
		<path fill="#FFF5D4" d="M119.813,24.751c2.573,0.206,5.092,0.455,7.557,0.736c0.608-1.855,1.213-3.711,1.818-5.571
			c-2.627-0.323-5.319-0.606-8.066-0.844C120.682,20.962,120.251,22.857,119.813,24.751z"/>
		<path fill="#FFF5D4" d="M22.7,41.197c-1.378-1.126-2.759-2.254-4.138-3.379c-0.792,0.904-1.441,1.828-1.942,2.764
			c1.343,1.026,2.684,2.056,4.03,3.08C21.199,42.822,21.883,42.002,22.7,41.197z"/>
		<path fill="#FFF5D4" d="M175.102,40.544c0.754,0.672,1.406,1.359,1.971,2.056c1.337-1.109,2.67-2.211,4.007-3.317
			c-0.538-0.779-1.182-1.548-1.923-2.299C177.804,38.173,176.454,39.359,175.102,40.544z"/>
		<path fill="#FFF5D4" d="M101.752,18.15c-0.01,1.931-0.019,3.862-0.031,5.793c2.993,0.028,5.94,0.108,8.842,0.233
			c0.219-1.92,0.44-3.841,0.659-5.763C108.117,18.271,104.955,18.182,101.752,18.15z"/>
		<path fill="#FFF5D4" d="M181.488,39.898c-1.331,1.086-2.661,2.173-3.989,3.258c0.659,0.911,1.157,1.837,1.477,2.78
			c1.286-0.982,2.566-1.959,3.853-2.943C182.563,41.945,182.109,40.912,181.488,39.898z"/>
		<path fill="#FFF5D4" d="M179.052,50.773c0.486-0.396,0.973-0.8,1.451-1.217c-0.45,0.318-0.901,0.637-1.353,0.954
			C179.126,50.599,179.079,50.686,179.052,50.773z"/>
		<path fill="#FFF5D4" d="M168.026,35.886c1.147,0.584,2.212,1.183,3.2,1.798c1.344-1.302,2.693-2.604,4.039-3.91
			c-1.004-0.692-2.088-1.369-3.26-2.027C170.679,33.128,169.357,34.506,168.026,35.886z"/>
		<path fill="#FFF5D4" d="M29.993,29.949c1.343,1.424,2.693,2.851,4.04,4.271c1.271-0.545,2.617-1.072,4.027-1.581
			c-1.299-1.497-2.604-2.994-3.903-4.487C32.693,28.729,31.305,29.333,29.993,29.949z"/>
		<path fill="#FFF5D4" d="M19.079,37.259c1.381,1.145,2.769,2.292,4.15,3.438c0.694-0.632,1.47-1.255,2.322-1.865
			c-1.397-1.221-2.788-2.446-4.179-3.67C20.524,35.848,19.757,36.548,19.079,37.259z"/>
		<path fill="#FFF5D4" d="M25.71,32.2c1.381,1.337,2.76,2.67,4.141,4.006c1.074-0.568,2.221-1.12,3.438-1.657
			c-1.353-1.412-2.706-2.821-4.062-4.228C27.979,30.931,26.803,31.557,25.71,32.2z"/>
		<path fill="#FFF5D4" d="M21.994,34.671c1.394,1.242,2.785,2.484,4.179,3.724c0.913-0.618,1.914-1.221,2.981-1.813
			c-1.384-1.318-2.766-2.636-4.15-3.958C23.917,33.292,22.906,33.974,21.994,34.671z"/>
		<path fill="#FFF5D4" d="M179.185,46.629c0.155,0.624,0.231,1.256,0.231,1.896c0,0.356-0.031,0.71-0.079,1.063
			c1.197-0.855,2.396-1.709,3.59-2.564c0.12-0.594,0.187-1.19,0.187-1.795c0-0.494-0.044-0.98-0.123-1.467
			C181.72,44.719,180.452,45.674,179.185,46.629z"/>
		<path fill="#FFF5D4" d="M111.408,24.213c2.563,0.119,5.085,0.279,7.566,0.47c0.415-1.896,0.83-3.794,1.248-5.69
			c-2.652-0.222-5.354-0.401-8.098-0.537C111.884,20.375,111.643,22.294,111.408,24.213z"/>
		<path fill="#FFF5D4" d="M22.227,55.262c-2.038-2.142-3.147-4.4-3.147-6.737c0-0.348,0.032-0.692,0.079-1.041
			c-1.254-0.881-2.506-1.762-3.754-2.642c-0.006,0.13-0.016,0.256-0.016,0.386c0,2.489,1.042,4.898,2.991,7.188
			c-2.044-1.573-3.638-3.223-4.767-4.926C14.774,51.611,18.705,53.957,22.227,55.262z"/>
		<path fill="#FFF5D4" d="M186.8,41.452c0.403-1.499,0.179-2.904-0.99-4.093c-0.002-0.001-0.002-0.001-0.003-0.003
			C186.443,38.693,186.772,40.061,186.8,41.452z"/>
		<path fill="#FFF5D4" d="M73.264,19.467c0.608,1.866,1.22,3.734,1.831,5.601c2.49-0.241,5.038-0.445,7.626-0.611
			c-0.438-1.901-0.875-3.798-1.312-5.703C78.641,18.949,75.925,19.185,73.264,19.467z"/>
		<path fill="#FFF5D4" d="M64.231,20.607c0.795,1.817,1.591,3.632,2.383,5.451c2.483-0.34,5.028-0.643,7.632-0.904
			c-0.63-1.865-1.258-3.728-1.888-5.592C69.58,19.864,66.871,20.214,64.231,20.607z"/>
		<path fill="#FFF5D4" d="M82.313,18.694c0.418,1.899,0.836,3.805,1.251,5.71c2.5-0.152,5.041-0.269,7.613-0.347
			c-0.241-1.925-0.481-3.848-0.716-5.771C87.701,18.382,84.98,18.513,82.313,18.694z"/>
		<path fill="#FFF5D4" d="M41.038,25.73c1.207,1.597,2.411,3.19,3.621,4.787c1.651-0.47,3.361-0.922,5.142-1.35
			c-1.125-1.66-2.25-3.32-3.371-4.98C44.567,24.678,42.768,25.193,41.038,25.73z"/>
		<path fill="#FFF5D4" d="M55.259,22.163c0.97,1.747,1.936,3.498,2.905,5.243c2.452-0.455,4.99-0.862,7.607-1.231
			c-0.814-1.812-1.628-3.623-2.439-5.433C60.553,21.169,57.86,21.645,55.259,22.163z"/>
		<path fill="#FFF5D4" d="M34.974,27.831c1.29,1.51,2.582,3.016,3.875,4.527c1.584-0.559,3.251-1.098,4.997-1.606
			c-1.22-1.584-2.443-3.17-3.663-4.751C38.36,26.584,36.625,27.194,34.974,27.831z"/>
		<path fill="#FFF5D4" d="M47.304,23.959c1.109,1.673,2.214,3.343,3.327,5.014c2.145-0.505,4.378-0.977,6.694-1.413
			c-0.985-1.738-1.968-3.479-2.956-5.22C51.926,22.844,49.569,23.384,47.304,23.959z"/>
	</g>
</g>
</svg>
